<svg xmlns="http://www.w3.org/2000/svg" xmlns:xlink="http://www.w3.org/1999/xlink" viewBox="0 0 53 59.31"><defs><style>.cls-1{fill:url(#linear-gradient);}.cls-2{fill:#043659;}.cls-3{fill:#fff;}</style><linearGradient id="linear-gradient" x1="26.5" y1="30.33" x2="26.5" y2="59.19" gradientUnits="userSpaceOnUse"><stop offset="0" stop-color="#fff" stop-opacity="0"/><stop offset="0.27" stop-color="#dfdfdf" stop-opacity="0.13"/><stop offset="0.71" stop-color="#888" stop-opacity="0.49"/><stop offset="1" stop-color="#3f3f3f" stop-opacity="0.8"/></linearGradient></defs><title>pin-earlyvoting (2)</title><g id="Layer_2" data-name="Layer 2"><g id="Layer_1-2" data-name="Layer 1"><g id="pin-earlyvoting"><path class="cls-1" d="M37.14,53.91,26.5,59.19,15.86,53.91h0c-8.44-2-14.28-6.25-14.28-11.2,0-6.83,11.16-12.38,24.92-12.38s24.92,5.55,24.92,12.38C51.42,47.71,45.71,52,37.14,53.91Z"/><circle class="cls-2" cx="26.5" cy="26.5" r="26.5"/><polyline class="cls-2" points="37.81 48 26.5 59.31 15.19 48"/><path class="cls-3" d="M26.49,13.57A12.8,12.8,0,1,0,39.3,26.38,12.8,12.8,0,0,0,26.49,13.57Zm0,23A10.24,10.24,0,1,1,36.74,26.38,10.23,10.23,0,0,1,26.5,36.61Z"/><path class="cls-3" d="M27.14,20H25.22v7.68l6.72,4,1-1.58-5.76-3.42Z"/></g></g></g></svg>